<?xml version="1.0" standalone="no"?><!DOCTYPE svg PUBLIC "-//W3C//DTD SVG 1.1//EN" "http://www.w3.org/Graphics/SVG/1.1/DTD/svg11.dtd"><svg t="1543815464139" class="icon" style="" viewBox="0 0 1024 1024" version="1.1" xmlns="http://www.w3.org/2000/svg" p-id="506" xmlns:xlink="http://www.w3.org/1999/xlink" width="200" height="200"><defs><style type="text/css"></style></defs><path d="M709.12 584.0896 314.88 584.0896c-8.9088 0-16.2816 7.2704-16.2816 16.2816l0 10.1376c0 8.9088 7.2704 16.2816 16.2816 16.2816l394.1376 0c8.9088 0 16.2816-7.2704 16.2816-16.2816l0-10.1376C725.2992 591.4624 718.0288 584.0896 709.12 584.0896z" p-id="507" fill="#e6e6e6"></path><path d="M538.4192 695.808 314.88 695.808c-8.9088 0-16.2816 7.2704-16.2816 16.2816l0 10.1376c0 8.9088 7.2704 16.2816 16.2816 16.2816l223.5392 0c8.9088 0 16.2816-7.2704 16.2816-16.2816l0-10.1376C554.7008 703.1808 547.328 695.808 538.4192 695.808z" p-id="508" fill="#e6e6e6"></path><path d="M709.12 472.3712 314.88 472.3712c-8.9088 0-16.2816 7.2704-16.2816 16.2816l0 10.1376c0 8.9088 7.2704 16.2816 16.2816 16.2816l394.1376 0c8.9088 0 16.2816-7.3728 16.2816-16.2816l0-10.1376C725.2992 479.6416 718.0288 472.3712 709.12 472.3712z" p-id="509" fill="#e6e6e6"></path><path d="M709.12 285.4912 314.88 285.4912c-8.9088 0-16.2816 7.3728-16.2816 16.2816l0 10.1376c0 8.9088 7.2704 16.2816 16.2816 16.2816l394.1376 0c8.9088 0 16.2816-7.2704 16.2816-16.2816l0-10.1376C725.2992 292.7616 718.0288 285.4912 709.12 285.4912z" p-id="510" fill="#e6e6e6"></path><path d="M789.2992 64l-268.288 0-60.8256 0L234.7008 64c-58.7776 0-106.7008 48.8448-106.7008 108.9536l0 678.0928c0 60.1088 47.8208 108.9536 106.7008 108.9536l554.7008 0c58.7776 0 106.7008-48.8448 106.7008-108.9536L896.1024 172.9536C896 112.8448 848.1792 64 789.2992 64zM853.2992 851.0464c0 36.0448-28.672 65.4336-64 65.4336L234.7008 916.48c-35.328 0-64-29.2864-64-65.4336L170.7008 172.9536c0-36.0448 28.672-65.4336 64-65.4336l230.2976 0 51.4048 0 272.9984 0c35.328 0 64 29.2864 64 65.4336L853.4016 851.0464z" p-id="511" fill="#e6e6e6"></path></svg>