<?xml version="1.0" standalone="no"?><!DOCTYPE svg PUBLIC "-//W3C//DTD SVG 1.1//EN" "http://www.w3.org/Graphics/SVG/1.1/DTD/svg11.dtd"><svg t="1544060845635" class="icon" style="" viewBox="0 0 1025 1024" version="1.1" xmlns="http://www.w3.org/2000/svg" p-id="1295" xmlns:xlink="http://www.w3.org/1999/xlink" width="200.1953125" height="200"><defs><style type="text/css"></style></defs><path d="M219.731478 511.996193c0-13.917367 5.73292-27.743374 15.569484-37.579937 9.836564-9.844177 23.66257-15.569484 37.579937-15.569484 13.917367 0 27.743374 5.725307 37.579937 15.569484 9.836564 9.836564 15.569484 23.654957 15.569484 37.579937 0 13.909754-5.73292 27.743374-15.569484 37.579937s-23.654957 15.569484-37.579937 15.569484c-13.909754 0-27.743374-5.73292-37.579937-15.569484S219.731478 525.905947 219.731478 511.996193L219.731478 511.996193z" p-id="1296" fill="#ffffff"></path><path d="M458.869612 511.996193c0-13.917367 5.725307-27.743374 15.569484-37.579937 9.836564-9.844177 23.654957-15.569484 37.579937-15.569484 13.909754 0 27.743374 5.725307 37.579937 15.569484 9.836564 9.836564 15.56187 23.654957 15.56187 37.579937 0 13.909754-5.725307 27.743374-15.56187 37.579937s-23.66257 15.569484-37.579937 15.569484c-13.917367 0-27.743374-5.73292-37.579937-15.569484C464.587305 539.739567 458.869612 525.905947 458.869612 511.996193L458.869612 511.996193z" p-id="1297" fill="#ffffff"></path><path d="M698.022974 511.996193c0-13.917367 5.725307-27.743374 15.56187-37.579937 9.836564-9.844177 23.66257-15.569484 37.579937-15.569484 13.917367 0 27.743374 5.725307 37.579937 15.569484 9.844177 9.836564 15.569484 23.654957 15.569484 37.579937 0 13.909754-5.725307 27.743374-15.569484 37.579937-9.836564 9.836564-23.654957 15.569484-37.579937 15.569484-13.909754 0-27.743374-5.73292-37.579937-15.569484S698.022974 525.905947 698.022974 511.996193L698.022974 511.996193z" p-id="1298" fill="#ffffff"></path><path d="M512.019034 0C229.689856 0 0 229.689856 0 512.019034c0 282.306337 229.689856 511.980966 512.019034 511.980966 282.321564 0 512.01142-229.67463 512.01142-511.980966C1024.030454 229.689856 794.340597 0 512.019034 0zM512.019034 995.320173c-266.516063 0-483.339207-216.81553-483.339207-483.30114 0-266.516063 216.823144-483.339207 483.339207-483.339207 266.50845 0 483.331594 216.823144 483.331594 483.339207C995.350627 778.512257 778.527483 995.320173 512.019034 995.320173z" p-id="1299" fill="#ffffff"></path></svg>